<mxfile host="app.diagrams.net" modified="2020-11-12T04:21:13.728Z" agent="5.0 (Windows NT 10.0; Win64; x64) AppleWebKit/537.36 (KHTML, like Gecko) Chrome/86.0.4240.183 Safari/537.36 OPR/72.0.3815.320" etag="pjp8OqFHlx7vaUgbqGyf" version="13.9.6" type="github">
  <diagram id="C5RBs43oDa-KdzZeNtuy" name="Page-1">
    <mxGraphModel dx="998" dy="548" grid="1" gridSize="10" guides="1" tooltips="1" connect="1" arrows="1" fold="1" page="1" pageScale="1" pageWidth="2339" pageHeight="3300" math="0" shadow="0">
      <root>
        <mxCell id="WIyWlLk6GJQsqaUBKTNV-0" />
        <mxCell id="WIyWlLk6GJQsqaUBKTNV-1" parent="WIyWlLk6GJQsqaUBKTNV-0" />
        <mxCell id="ReeH3Xt1Pkfj4cLhiJu3-0" value="Message" style="rounded=0;whiteSpace=wrap;html=1;" parent="WIyWlLk6GJQsqaUBKTNV-1" vertex="1">
          <mxGeometry x="1190" y="980" width="120" height="60" as="geometry" />
        </mxCell>
        <mxCell id="ReeH3Xt1Pkfj4cLhiJu3-2" value="Service" style="rounded=0;whiteSpace=wrap;html=1;" parent="WIyWlLk6GJQsqaUBKTNV-1" vertex="1">
          <mxGeometry x="820" y="650" width="120" height="60" as="geometry" />
        </mxCell>
        <mxCell id="ReeH3Xt1Pkfj4cLhiJu3-6" value="Photographer" style="rounded=0;whiteSpace=wrap;html=1;" parent="WIyWlLk6GJQsqaUBKTNV-1" vertex="1">
          <mxGeometry x="820" y="950" width="120" height="60" as="geometry" />
        </mxCell>
        <mxCell id="ReeH3Xt1Pkfj4cLhiJu3-4" value="Customer" style="rounded=0;whiteSpace=wrap;html=1;" parent="WIyWlLk6GJQsqaUBKTNV-1" vertex="1">
          <mxGeometry x="1620" y="860" width="120" height="60" as="geometry" />
        </mxCell>
        <mxCell id="ReeH3Xt1Pkfj4cLhiJu3-18" value="" style="endArrow=none;html=1;exitX=1;exitY=0.5;exitDx=0;exitDy=0;entryX=0.5;entryY=1;entryDx=0;entryDy=0;" parent="WIyWlLk6GJQsqaUBKTNV-1" source="ReeH3Xt1Pkfj4cLhiJu3-100" edge="1">
          <mxGeometry width="50" height="50" relative="1" as="geometry">
            <mxPoint x="1060" y="890" as="sourcePoint" />
            <mxPoint x="1610" y="870" as="targetPoint" />
          </mxGeometry>
        </mxCell>
        <mxCell id="ReeH3Xt1Pkfj4cLhiJu3-19" value="" style="endArrow=none;html=1;entryX=0.5;entryY=1;entryDx=0;entryDy=0;exitX=0.5;exitY=0;exitDx=0;exitDy=0;" parent="WIyWlLk6GJQsqaUBKTNV-1" source="ReeH3Xt1Pkfj4cLhiJu3-6" target="ReeH3Xt1Pkfj4cLhiJu3-2" edge="1">
          <mxGeometry width="50" height="50" relative="1" as="geometry">
            <mxPoint x="990" y="890" as="sourcePoint" />
            <mxPoint x="1040" y="840" as="targetPoint" />
          </mxGeometry>
        </mxCell>
        <mxCell id="ReeH3Xt1Pkfj4cLhiJu3-23" value="" style="endArrow=none;html=1;exitX=1;exitY=0.5;exitDx=0;exitDy=0;entryX=0;entryY=0.5;entryDx=0;entryDy=0;" parent="WIyWlLk6GJQsqaUBKTNV-1" source="ReeH3Xt1Pkfj4cLhiJu3-106" target="ReeH3Xt1Pkfj4cLhiJu3-0" edge="1">
          <mxGeometry width="50" height="50" relative="1" as="geometry">
            <mxPoint x="1300" y="920" as="sourcePoint" />
            <mxPoint x="1350" y="870" as="targetPoint" />
          </mxGeometry>
        </mxCell>
        <mxCell id="ReeH3Xt1Pkfj4cLhiJu3-24" value="" style="endArrow=none;html=1;exitX=1;exitY=0.5;exitDx=0;exitDy=0;entryX=0;entryY=1;entryDx=0;entryDy=0;" parent="WIyWlLk6GJQsqaUBKTNV-1" source="ReeH3Xt1Pkfj4cLhiJu3-104" target="ReeH3Xt1Pkfj4cLhiJu3-4" edge="1">
          <mxGeometry width="50" height="50" relative="1" as="geometry">
            <mxPoint x="1300" y="920" as="sourcePoint" />
            <mxPoint x="1350" y="870" as="targetPoint" />
          </mxGeometry>
        </mxCell>
        <mxCell id="ReeH3Xt1Pkfj4cLhiJu3-25" value="ID" style="ellipse;whiteSpace=wrap;html=1;" parent="WIyWlLk6GJQsqaUBKTNV-1" vertex="1">
          <mxGeometry x="1740" y="580" width="80" height="60" as="geometry" />
        </mxCell>
        <mxCell id="ReeH3Xt1Pkfj4cLhiJu3-26" value="Phone" style="ellipse;whiteSpace=wrap;html=1;" parent="WIyWlLk6GJQsqaUBKTNV-1" vertex="1">
          <mxGeometry x="1850" y="745" width="80" height="60" as="geometry" />
        </mxCell>
        <mxCell id="ReeH3Xt1Pkfj4cLhiJu3-27" value="Age" style="ellipse;whiteSpace=wrap;html=1;" parent="WIyWlLk6GJQsqaUBKTNV-1" vertex="1">
          <mxGeometry x="1890" y="830" width="80" height="60" as="geometry" />
        </mxCell>
        <mxCell id="ReeH3Xt1Pkfj4cLhiJu3-28" value="Name" style="ellipse;whiteSpace=wrap;html=1;" parent="WIyWlLk6GJQsqaUBKTNV-1" vertex="1">
          <mxGeometry x="1810" y="655" width="80" height="60" as="geometry" />
        </mxCell>
        <mxCell id="ReeH3Xt1Pkfj4cLhiJu3-29" value="Target" style="ellipse;whiteSpace=wrap;html=1;" parent="WIyWlLk6GJQsqaUBKTNV-1" vertex="1">
          <mxGeometry x="1860" y="915" width="80" height="60" as="geometry" />
        </mxCell>
        <mxCell id="ReeH3Xt1Pkfj4cLhiJu3-30" value="Height" style="ellipse;whiteSpace=wrap;html=1;" parent="WIyWlLk6GJQsqaUBKTNV-1" vertex="1">
          <mxGeometry x="1840" y="1010" width="80" height="60" as="geometry" />
        </mxCell>
        <mxCell id="ReeH3Xt1Pkfj4cLhiJu3-31" value="Weight" style="ellipse;whiteSpace=wrap;html=1;" parent="WIyWlLk6GJQsqaUBKTNV-1" vertex="1">
          <mxGeometry x="1830" y="1110" width="80" height="60" as="geometry" />
        </mxCell>
        <mxCell id="ReeH3Xt1Pkfj4cLhiJu3-32" value="" style="endArrow=none;html=1;entryX=0.5;entryY=1;entryDx=0;entryDy=0;exitX=0.75;exitY=0;exitDx=0;exitDy=0;" parent="WIyWlLk6GJQsqaUBKTNV-1" source="ReeH3Xt1Pkfj4cLhiJu3-4" target="ReeH3Xt1Pkfj4cLhiJu3-25" edge="1">
          <mxGeometry width="50" height="50" relative="1" as="geometry">
            <mxPoint x="1600" y="880" as="sourcePoint" />
            <mxPoint x="1650" y="830" as="targetPoint" />
          </mxGeometry>
        </mxCell>
        <mxCell id="ReeH3Xt1Pkfj4cLhiJu3-33" value="" style="endArrow=none;html=1;entryX=0;entryY=1;entryDx=0;entryDy=0;exitX=1;exitY=0;exitDx=0;exitDy=0;" parent="WIyWlLk6GJQsqaUBKTNV-1" source="ReeH3Xt1Pkfj4cLhiJu3-4" target="ReeH3Xt1Pkfj4cLhiJu3-28" edge="1">
          <mxGeometry width="50" height="50" relative="1" as="geometry">
            <mxPoint x="1650" y="880" as="sourcePoint" />
            <mxPoint x="1670" y="850" as="targetPoint" />
          </mxGeometry>
        </mxCell>
        <mxCell id="ReeH3Xt1Pkfj4cLhiJu3-34" value="" style="endArrow=none;html=1;entryX=0;entryY=0.5;entryDx=0;entryDy=0;exitX=1;exitY=0.5;exitDx=0;exitDy=0;" parent="WIyWlLk6GJQsqaUBKTNV-1" source="ReeH3Xt1Pkfj4cLhiJu3-4" target="ReeH3Xt1Pkfj4cLhiJu3-26" edge="1">
          <mxGeometry width="50" height="50" relative="1" as="geometry">
            <mxPoint x="1650" y="890" as="sourcePoint" />
            <mxPoint x="1690" y="840" as="targetPoint" />
          </mxGeometry>
        </mxCell>
        <mxCell id="ReeH3Xt1Pkfj4cLhiJu3-35" value="" style="endArrow=none;html=1;entryX=0;entryY=0.5;entryDx=0;entryDy=0;exitX=1;exitY=0.5;exitDx=0;exitDy=0;" parent="WIyWlLk6GJQsqaUBKTNV-1" source="ReeH3Xt1Pkfj4cLhiJu3-4" target="ReeH3Xt1Pkfj4cLhiJu3-27" edge="1">
          <mxGeometry width="50" height="50" relative="1" as="geometry">
            <mxPoint x="1640" y="910" as="sourcePoint" />
            <mxPoint x="1690" y="850" as="targetPoint" />
          </mxGeometry>
        </mxCell>
        <mxCell id="ReeH3Xt1Pkfj4cLhiJu3-36" value="" style="endArrow=none;html=1;entryX=0;entryY=0;entryDx=0;entryDy=0;exitX=1;exitY=0.5;exitDx=0;exitDy=0;" parent="WIyWlLk6GJQsqaUBKTNV-1" source="ReeH3Xt1Pkfj4cLhiJu3-4" target="ReeH3Xt1Pkfj4cLhiJu3-29" edge="1">
          <mxGeometry width="50" height="50" relative="1" as="geometry">
            <mxPoint x="1650" y="915" as="sourcePoint" />
            <mxPoint x="1690" y="865" as="targetPoint" />
          </mxGeometry>
        </mxCell>
        <mxCell id="ReeH3Xt1Pkfj4cLhiJu3-37" value="" style="endArrow=none;html=1;entryX=0;entryY=0.5;entryDx=0;entryDy=0;exitX=1;exitY=1;exitDx=0;exitDy=0;" parent="WIyWlLk6GJQsqaUBKTNV-1" source="ReeH3Xt1Pkfj4cLhiJu3-4" target="ReeH3Xt1Pkfj4cLhiJu3-30" edge="1">
          <mxGeometry width="50" height="50" relative="1" as="geometry">
            <mxPoint x="1650" y="940" as="sourcePoint" />
            <mxPoint x="1690" y="890" as="targetPoint" />
          </mxGeometry>
        </mxCell>
        <mxCell id="ReeH3Xt1Pkfj4cLhiJu3-38" value="" style="endArrow=none;html=1;entryX=0;entryY=0.5;entryDx=0;entryDy=0;exitX=0.75;exitY=1;exitDx=0;exitDy=0;" parent="WIyWlLk6GJQsqaUBKTNV-1" source="ReeH3Xt1Pkfj4cLhiJu3-4" target="ReeH3Xt1Pkfj4cLhiJu3-31" edge="1">
          <mxGeometry width="50" height="50" relative="1" as="geometry">
            <mxPoint x="1620" y="940" as="sourcePoint" />
            <mxPoint x="1660" y="890" as="targetPoint" />
          </mxGeometry>
        </mxCell>
        <mxCell id="ReeH3Xt1Pkfj4cLhiJu3-53" value="Review" style="ellipse;whiteSpace=wrap;html=1;" parent="WIyWlLk6GJQsqaUBKTNV-1" vertex="1">
          <mxGeometry x="1140" y="595" width="80" height="60" as="geometry" />
        </mxCell>
        <mxCell id="ReeH3Xt1Pkfj4cLhiJu3-55" value="ID" style="ellipse;whiteSpace=wrap;html=1;" parent="WIyWlLk6GJQsqaUBKTNV-1" vertex="1">
          <mxGeometry x="900" y="500" width="80" height="60" as="geometry" />
        </mxCell>
        <mxCell id="ReeH3Xt1Pkfj4cLhiJu3-56" value="Category" style="ellipse;whiteSpace=wrap;html=1;" parent="WIyWlLk6GJQsqaUBKTNV-1" vertex="1">
          <mxGeometry x="810" y="500" width="80" height="60" as="geometry" />
        </mxCell>
        <mxCell id="ReeH3Xt1Pkfj4cLhiJu3-57" value="Person Post" style="ellipse;whiteSpace=wrap;html=1;" parent="WIyWlLk6GJQsqaUBKTNV-1" vertex="1">
          <mxGeometry x="690" y="540" width="80" height="60" as="geometry" />
        </mxCell>
        <mxCell id="ReeH3Xt1Pkfj4cLhiJu3-58" value="Name" style="ellipse;whiteSpace=wrap;html=1;" parent="WIyWlLk6GJQsqaUBKTNV-1" vertex="1">
          <mxGeometry x="630" y="740" width="80" height="60" as="geometry" />
        </mxCell>
        <mxCell id="ReeH3Xt1Pkfj4cLhiJu3-59" value="Phone" style="ellipse;whiteSpace=wrap;html=1;" parent="WIyWlLk6GJQsqaUBKTNV-1" vertex="1">
          <mxGeometry x="600" y="810" width="80" height="60" as="geometry" />
        </mxCell>
        <mxCell id="ReeH3Xt1Pkfj4cLhiJu3-60" value="Email" style="ellipse;whiteSpace=wrap;html=1;" parent="WIyWlLk6GJQsqaUBKTNV-1" vertex="1">
          <mxGeometry x="640" y="990" width="80" height="60" as="geometry" />
        </mxCell>
        <mxCell id="ReeH3Xt1Pkfj4cLhiJu3-61" value="Schedule" style="ellipse;whiteSpace=wrap;html=1;" parent="WIyWlLk6GJQsqaUBKTNV-1" vertex="1">
          <mxGeometry x="660" y="1080" width="80" height="60" as="geometry" />
        </mxCell>
        <mxCell id="ReeH3Xt1Pkfj4cLhiJu3-62" value="Cetificate" style="ellipse;whiteSpace=wrap;html=1;" parent="WIyWlLk6GJQsqaUBKTNV-1" vertex="1">
          <mxGeometry x="740" y="1150" width="80" height="60" as="geometry" />
        </mxCell>
        <mxCell id="ReeH3Xt1Pkfj4cLhiJu3-63" value="ID" style="ellipse;whiteSpace=wrap;html=1;" parent="WIyWlLk6GJQsqaUBKTNV-1" vertex="1">
          <mxGeometry x="740" y="715" width="80" height="60" as="geometry" />
        </mxCell>
        <mxCell id="ReeH3Xt1Pkfj4cLhiJu3-64" value="Award" style="ellipse;whiteSpace=wrap;html=1;" parent="WIyWlLk6GJQsqaUBKTNV-1" vertex="1">
          <mxGeometry x="620" y="900" width="80" height="60" as="geometry" />
        </mxCell>
        <mxCell id="ReeH3Xt1Pkfj4cLhiJu3-65" value="Content" style="ellipse;whiteSpace=wrap;html=1;" parent="WIyWlLk6GJQsqaUBKTNV-1" vertex="1">
          <mxGeometry x="1360" y="695" width="80" height="60" as="geometry" />
        </mxCell>
        <mxCell id="ReeH3Xt1Pkfj4cLhiJu3-66" value="Time" style="ellipse;whiteSpace=wrap;html=1;" parent="WIyWlLk6GJQsqaUBKTNV-1" vertex="1">
          <mxGeometry x="1260" y="680" width="80" height="60" as="geometry" />
        </mxCell>
        <mxCell id="ReeH3Xt1Pkfj4cLhiJu3-67" value="ID" style="ellipse;whiteSpace=wrap;html=1;" parent="WIyWlLk6GJQsqaUBKTNV-1" vertex="1">
          <mxGeometry x="1100" y="705" width="80" height="60" as="geometry" />
        </mxCell>
        <mxCell id="ReeH3Xt1Pkfj4cLhiJu3-68" value="Body" style="ellipse;whiteSpace=wrap;html=1;" parent="WIyWlLk6GJQsqaUBKTNV-1" vertex="1">
          <mxGeometry x="1100" y="1060" width="50" height="40" as="geometry" />
        </mxCell>
        <mxCell id="ReeH3Xt1Pkfj4cLhiJu3-69" value="Time" style="ellipse;whiteSpace=wrap;html=1;" parent="WIyWlLk6GJQsqaUBKTNV-1" vertex="1">
          <mxGeometry x="1195" y="1080" width="50" height="40" as="geometry" />
        </mxCell>
        <mxCell id="ReeH3Xt1Pkfj4cLhiJu3-70" value="ID" style="ellipse;whiteSpace=wrap;html=1;" parent="WIyWlLk6GJQsqaUBKTNV-1" vertex="1">
          <mxGeometry x="1170" y="880" width="50" height="40" as="geometry" />
        </mxCell>
        <mxCell id="ReeH3Xt1Pkfj4cLhiJu3-73" value="" style="endArrow=none;html=1;entryX=0;entryY=1;entryDx=0;entryDy=0;" parent="WIyWlLk6GJQsqaUBKTNV-1" source="ReeH3Xt1Pkfj4cLhiJu3-100" target="ReeH3Xt1Pkfj4cLhiJu3-53" edge="1">
          <mxGeometry width="50" height="50" relative="1" as="geometry">
            <mxPoint x="1320" y="520" as="sourcePoint" />
            <mxPoint x="1430" y="590" as="targetPoint" />
          </mxGeometry>
        </mxCell>
        <mxCell id="ReeH3Xt1Pkfj4cLhiJu3-75" value="" style="endArrow=none;html=1;entryX=0.75;entryY=0;entryDx=0;entryDy=0;exitX=0.5;exitY=1;exitDx=0;exitDy=0;" parent="WIyWlLk6GJQsqaUBKTNV-1" source="ReeH3Xt1Pkfj4cLhiJu3-55" target="ReeH3Xt1Pkfj4cLhiJu3-2" edge="1">
          <mxGeometry width="50" height="50" relative="1" as="geometry">
            <mxPoint x="1110" y="850" as="sourcePoint" />
            <mxPoint x="1190" y="830" as="targetPoint" />
          </mxGeometry>
        </mxCell>
        <mxCell id="ReeH3Xt1Pkfj4cLhiJu3-76" value="" style="endArrow=none;html=1;exitX=0.25;exitY=0;exitDx=0;exitDy=0;entryX=0.5;entryY=1;entryDx=0;entryDy=0;" parent="WIyWlLk6GJQsqaUBKTNV-1" source="ReeH3Xt1Pkfj4cLhiJu3-2" target="ReeH3Xt1Pkfj4cLhiJu3-56" edge="1">
          <mxGeometry width="50" height="50" relative="1" as="geometry">
            <mxPoint x="1150" y="890" as="sourcePoint" />
            <mxPoint x="1200" y="840" as="targetPoint" />
          </mxGeometry>
        </mxCell>
        <mxCell id="ReeH3Xt1Pkfj4cLhiJu3-77" value="" style="endArrow=none;html=1;exitX=0;exitY=0;exitDx=0;exitDy=0;entryX=1;entryY=1;entryDx=0;entryDy=0;" parent="WIyWlLk6GJQsqaUBKTNV-1" source="ReeH3Xt1Pkfj4cLhiJu3-2" target="ReeH3Xt1Pkfj4cLhiJu3-57" edge="1">
          <mxGeometry width="50" height="50" relative="1" as="geometry">
            <mxPoint x="1160" y="900" as="sourcePoint" />
            <mxPoint x="1210" y="850" as="targetPoint" />
          </mxGeometry>
        </mxCell>
        <mxCell id="ReeH3Xt1Pkfj4cLhiJu3-78" value="" style="endArrow=none;html=1;exitX=0;exitY=0;exitDx=0;exitDy=0;entryX=1;entryY=1;entryDx=0;entryDy=0;" parent="WIyWlLk6GJQsqaUBKTNV-1" source="ReeH3Xt1Pkfj4cLhiJu3-100" target="ReeH3Xt1Pkfj4cLhiJu3-67" edge="1">
          <mxGeometry width="50" height="50" relative="1" as="geometry">
            <mxPoint x="1220" y="790" as="sourcePoint" />
            <mxPoint x="1220" y="860" as="targetPoint" />
          </mxGeometry>
        </mxCell>
        <mxCell id="ReeH3Xt1Pkfj4cLhiJu3-79" value="" style="endArrow=none;html=1;entryX=0.5;entryY=0;entryDx=0;entryDy=0;exitX=0.5;exitY=1;exitDx=0;exitDy=0;" parent="WIyWlLk6GJQsqaUBKTNV-1" source="ReeH3Xt1Pkfj4cLhiJu3-66" target="ReeH3Xt1Pkfj4cLhiJu3-100" edge="1">
          <mxGeometry width="50" height="50" relative="1" as="geometry">
            <mxPoint x="1180" y="920" as="sourcePoint" />
            <mxPoint x="1280" y="790" as="targetPoint" />
          </mxGeometry>
        </mxCell>
        <mxCell id="ReeH3Xt1Pkfj4cLhiJu3-80" value="" style="endArrow=none;html=1;entryX=1;entryY=0;entryDx=0;entryDy=0;exitX=0.5;exitY=1;exitDx=0;exitDy=0;" parent="WIyWlLk6GJQsqaUBKTNV-1" source="ReeH3Xt1Pkfj4cLhiJu3-65" target="ReeH3Xt1Pkfj4cLhiJu3-100" edge="1">
          <mxGeometry width="50" height="50" relative="1" as="geometry">
            <mxPoint x="1190" y="930" as="sourcePoint" />
            <mxPoint x="1340" y="790" as="targetPoint" />
          </mxGeometry>
        </mxCell>
        <mxCell id="ReeH3Xt1Pkfj4cLhiJu3-81" value="" style="endArrow=none;html=1;exitX=0.25;exitY=0;exitDx=0;exitDy=0;entryX=0.5;entryY=1;entryDx=0;entryDy=0;" parent="WIyWlLk6GJQsqaUBKTNV-1" source="ReeH3Xt1Pkfj4cLhiJu3-0" target="ReeH3Xt1Pkfj4cLhiJu3-70" edge="1">
          <mxGeometry width="50" height="50" relative="1" as="geometry">
            <mxPoint x="1200" y="940" as="sourcePoint" />
            <mxPoint x="1250" y="890" as="targetPoint" />
          </mxGeometry>
        </mxCell>
        <mxCell id="ReeH3Xt1Pkfj4cLhiJu3-82" value="" style="endArrow=none;html=1;exitX=1;exitY=0.5;exitDx=0;exitDy=0;entryX=0;entryY=0.75;entryDx=0;entryDy=0;" parent="WIyWlLk6GJQsqaUBKTNV-1" source="ReeH3Xt1Pkfj4cLhiJu3-68" target="ReeH3Xt1Pkfj4cLhiJu3-0" edge="1">
          <mxGeometry width="50" height="50" relative="1" as="geometry">
            <mxPoint x="1210" y="950" as="sourcePoint" />
            <mxPoint x="1260" y="900" as="targetPoint" />
          </mxGeometry>
        </mxCell>
        <mxCell id="ReeH3Xt1Pkfj4cLhiJu3-83" value="" style="endArrow=none;html=1;exitX=0.5;exitY=1;exitDx=0;exitDy=0;entryX=0.5;entryY=0;entryDx=0;entryDy=0;" parent="WIyWlLk6GJQsqaUBKTNV-1" source="ReeH3Xt1Pkfj4cLhiJu3-0" target="ReeH3Xt1Pkfj4cLhiJu3-69" edge="1">
          <mxGeometry width="50" height="50" relative="1" as="geometry">
            <mxPoint x="1220" y="960" as="sourcePoint" />
            <mxPoint x="1270" y="910" as="targetPoint" />
          </mxGeometry>
        </mxCell>
        <mxCell id="ReeH3Xt1Pkfj4cLhiJu3-84" value="" style="endArrow=none;html=1;exitX=0.25;exitY=0;exitDx=0;exitDy=0;entryX=0.5;entryY=1;entryDx=0;entryDy=0;" parent="WIyWlLk6GJQsqaUBKTNV-1" source="ReeH3Xt1Pkfj4cLhiJu3-6" target="ReeH3Xt1Pkfj4cLhiJu3-63" edge="1">
          <mxGeometry width="50" height="50" relative="1" as="geometry">
            <mxPoint x="1230" y="970" as="sourcePoint" />
            <mxPoint x="1280" y="920" as="targetPoint" />
          </mxGeometry>
        </mxCell>
        <mxCell id="ReeH3Xt1Pkfj4cLhiJu3-85" value="" style="endArrow=none;html=1;exitX=0;exitY=0;exitDx=0;exitDy=0;entryX=1;entryY=1;entryDx=0;entryDy=0;" parent="WIyWlLk6GJQsqaUBKTNV-1" source="ReeH3Xt1Pkfj4cLhiJu3-6" target="ReeH3Xt1Pkfj4cLhiJu3-58" edge="1">
          <mxGeometry width="50" height="50" relative="1" as="geometry">
            <mxPoint x="1240" y="980" as="sourcePoint" />
            <mxPoint x="1290" y="930" as="targetPoint" />
          </mxGeometry>
        </mxCell>
        <mxCell id="ReeH3Xt1Pkfj4cLhiJu3-86" value="" style="endArrow=none;html=1;exitX=0;exitY=0.25;exitDx=0;exitDy=0;entryX=1;entryY=0.5;entryDx=0;entryDy=0;" parent="WIyWlLk6GJQsqaUBKTNV-1" source="ReeH3Xt1Pkfj4cLhiJu3-6" target="ReeH3Xt1Pkfj4cLhiJu3-59" edge="1">
          <mxGeometry width="50" height="50" relative="1" as="geometry">
            <mxPoint x="1250" y="990" as="sourcePoint" />
            <mxPoint x="1300" y="940" as="targetPoint" />
          </mxGeometry>
        </mxCell>
        <mxCell id="ReeH3Xt1Pkfj4cLhiJu3-87" value="" style="endArrow=none;html=1;exitX=0;exitY=0.5;exitDx=0;exitDy=0;entryX=1;entryY=0.5;entryDx=0;entryDy=0;" parent="WIyWlLk6GJQsqaUBKTNV-1" source="ReeH3Xt1Pkfj4cLhiJu3-6" target="ReeH3Xt1Pkfj4cLhiJu3-64" edge="1">
          <mxGeometry width="50" height="50" relative="1" as="geometry">
            <mxPoint x="1260" y="1000" as="sourcePoint" />
            <mxPoint x="1310" y="950" as="targetPoint" />
          </mxGeometry>
        </mxCell>
        <mxCell id="ReeH3Xt1Pkfj4cLhiJu3-88" value="" style="endArrow=none;html=1;exitX=0;exitY=0.75;exitDx=0;exitDy=0;entryX=1;entryY=0.5;entryDx=0;entryDy=0;" parent="WIyWlLk6GJQsqaUBKTNV-1" source="ReeH3Xt1Pkfj4cLhiJu3-6" target="ReeH3Xt1Pkfj4cLhiJu3-60" edge="1">
          <mxGeometry width="50" height="50" relative="1" as="geometry">
            <mxPoint x="1270" y="1010" as="sourcePoint" />
            <mxPoint x="1320" y="960" as="targetPoint" />
          </mxGeometry>
        </mxCell>
        <mxCell id="ReeH3Xt1Pkfj4cLhiJu3-89" value="" style="endArrow=none;html=1;exitX=1;exitY=0.5;exitDx=0;exitDy=0;entryX=0;entryY=1;entryDx=0;entryDy=0;" parent="WIyWlLk6GJQsqaUBKTNV-1" source="ReeH3Xt1Pkfj4cLhiJu3-61" target="ReeH3Xt1Pkfj4cLhiJu3-6" edge="1">
          <mxGeometry width="50" height="50" relative="1" as="geometry">
            <mxPoint x="1280" y="1020" as="sourcePoint" />
            <mxPoint x="1330" y="970" as="targetPoint" />
          </mxGeometry>
        </mxCell>
        <mxCell id="ReeH3Xt1Pkfj4cLhiJu3-90" value="" style="endArrow=none;html=1;exitX=0.5;exitY=0;exitDx=0;exitDy=0;entryX=0.25;entryY=1;entryDx=0;entryDy=0;" parent="WIyWlLk6GJQsqaUBKTNV-1" source="ReeH3Xt1Pkfj4cLhiJu3-62" target="ReeH3Xt1Pkfj4cLhiJu3-6" edge="1">
          <mxGeometry width="50" height="50" relative="1" as="geometry">
            <mxPoint x="1290" y="1030" as="sourcePoint" />
            <mxPoint x="1340" y="980" as="targetPoint" />
          </mxGeometry>
        </mxCell>
        <mxCell id="ReeH3Xt1Pkfj4cLhiJu3-99" value="Provide" style="rhombus;whiteSpace=wrap;html=1;" parent="WIyWlLk6GJQsqaUBKTNV-1" vertex="1">
          <mxGeometry x="850" y="800" width="60" height="50" as="geometry" />
        </mxCell>
        <mxCell id="ReeH3Xt1Pkfj4cLhiJu3-100" value="Booking" style="rhombus;whiteSpace=wrap;html=1;" parent="WIyWlLk6GJQsqaUBKTNV-1" vertex="1">
          <mxGeometry x="1230" y="805" width="110" height="90" as="geometry" />
        </mxCell>
        <mxCell id="ReeH3Xt1Pkfj4cLhiJu3-101" value="" style="endArrow=none;html=1;entryX=0;entryY=0.5;entryDx=0;entryDy=0;exitX=1;exitY=0;exitDx=0;exitDy=0;" parent="WIyWlLk6GJQsqaUBKTNV-1" source="ReeH3Xt1Pkfj4cLhiJu3-6" target="ReeH3Xt1Pkfj4cLhiJu3-100" edge="1">
          <mxGeometry width="50" height="50" relative="1" as="geometry">
            <mxPoint x="1060" y="905" as="sourcePoint" />
            <mxPoint x="1230" y="905" as="targetPoint" />
          </mxGeometry>
        </mxCell>
        <mxCell id="ReeH3Xt1Pkfj4cLhiJu3-104" value="send" style="rhombus;whiteSpace=wrap;html=1;" parent="WIyWlLk6GJQsqaUBKTNV-1" vertex="1">
          <mxGeometry x="1420" y="940" width="60" height="50" as="geometry" />
        </mxCell>
        <mxCell id="ReeH3Xt1Pkfj4cLhiJu3-105" value="" style="endArrow=none;html=1;exitX=1;exitY=0.5;exitDx=0;exitDy=0;entryX=0;entryY=1;entryDx=0;entryDy=0;" parent="WIyWlLk6GJQsqaUBKTNV-1" source="ReeH3Xt1Pkfj4cLhiJu3-0" target="ReeH3Xt1Pkfj4cLhiJu3-104" edge="1">
          <mxGeometry width="50" height="50" relative="1" as="geometry">
            <mxPoint x="1279.9999999999995" y="1000" as="sourcePoint" />
            <mxPoint x="1530" y="940" as="targetPoint" />
          </mxGeometry>
        </mxCell>
        <mxCell id="ReeH3Xt1Pkfj4cLhiJu3-106" value="send" style="rhombus;whiteSpace=wrap;html=1;" parent="WIyWlLk6GJQsqaUBKTNV-1" vertex="1">
          <mxGeometry x="1030" y="985" width="60" height="50" as="geometry" />
        </mxCell>
        <mxCell id="ReeH3Xt1Pkfj4cLhiJu3-112" value="" style="endArrow=none;html=1;exitX=1;exitY=1;exitDx=0;exitDy=0;entryX=0;entryY=0.5;entryDx=0;entryDy=0;" parent="WIyWlLk6GJQsqaUBKTNV-1" source="ReeH3Xt1Pkfj4cLhiJu3-6" target="ReeH3Xt1Pkfj4cLhiJu3-106" edge="1">
          <mxGeometry width="50" height="50" relative="1" as="geometry">
            <mxPoint x="940" y="1010" as="sourcePoint" />
            <mxPoint x="1160" y="1000" as="targetPoint" />
          </mxGeometry>
        </mxCell>
        <mxCell id="ReeH3Xt1Pkfj4cLhiJu3-118" value="N" style="text;html=1;strokeColor=none;fillColor=none;align=center;verticalAlign=middle;whiteSpace=wrap;rounded=0;" parent="WIyWlLk6GJQsqaUBKTNV-1" vertex="1">
          <mxGeometry x="1300" y="980" width="40" height="20" as="geometry" />
        </mxCell>
        <mxCell id="ReeH3Xt1Pkfj4cLhiJu3-119" value="N" style="text;html=1;strokeColor=none;fillColor=none;align=center;verticalAlign=middle;whiteSpace=wrap;rounded=0;" parent="WIyWlLk6GJQsqaUBKTNV-1" vertex="1">
          <mxGeometry x="1155" y="990" width="40" height="20" as="geometry" />
        </mxCell>
        <mxCell id="ReeH3Xt1Pkfj4cLhiJu3-120" value="1" style="text;html=1;strokeColor=none;fillColor=none;align=center;verticalAlign=middle;whiteSpace=wrap;rounded=0;" parent="WIyWlLk6GJQsqaUBKTNV-1" vertex="1">
          <mxGeometry x="940" y="990" width="40" height="20" as="geometry" />
        </mxCell>
        <mxCell id="ReeH3Xt1Pkfj4cLhiJu3-122" value="N" style="text;html=1;strokeColor=none;fillColor=none;align=center;verticalAlign=middle;whiteSpace=wrap;rounded=0;" parent="WIyWlLk6GJQsqaUBKTNV-1" vertex="1">
          <mxGeometry x="910" y="915" width="40" height="20" as="geometry" />
        </mxCell>
        <mxCell id="ReeH3Xt1Pkfj4cLhiJu3-123" value="N" style="text;html=1;strokeColor=none;fillColor=none;align=center;verticalAlign=middle;whiteSpace=wrap;rounded=0;" parent="WIyWlLk6GJQsqaUBKTNV-1" vertex="1">
          <mxGeometry x="1680" y="920" width="40" height="20" as="geometry" />
        </mxCell>
        <mxCell id="ReeH3Xt1Pkfj4cLhiJu3-129" value="N" style="text;html=1;strokeColor=none;fillColor=none;align=center;verticalAlign=middle;whiteSpace=wrap;rounded=0;" parent="WIyWlLk6GJQsqaUBKTNV-1" vertex="1">
          <mxGeometry x="840" y="930" width="40" height="20" as="geometry" />
        </mxCell>
        <mxCell id="ReeH3Xt1Pkfj4cLhiJu3-130" value="N" style="text;html=1;strokeColor=none;fillColor=none;align=center;verticalAlign=middle;whiteSpace=wrap;rounded=0;" parent="WIyWlLk6GJQsqaUBKTNV-1" vertex="1">
          <mxGeometry x="840" y="710" width="40" height="20" as="geometry" />
        </mxCell>
        <mxCell id="4REYapqOr-iFjJKdb2jv-0" value="1" style="text;html=1;strokeColor=none;fillColor=none;align=center;verticalAlign=middle;whiteSpace=wrap;rounded=0;" parent="WIyWlLk6GJQsqaUBKTNV-1" vertex="1">
          <mxGeometry x="1590" y="895" width="40" height="20" as="geometry" />
        </mxCell>
        <mxCell id="R_dNniGwWuZGF0Bj567y-3" value="1" style="text;html=1;strokeColor=none;fillColor=none;align=center;verticalAlign=middle;whiteSpace=wrap;rounded=0;" parent="WIyWlLk6GJQsqaUBKTNV-1" vertex="1">
          <mxGeometry x="770" y="655" width="40" height="20" as="geometry" />
        </mxCell>
        <mxCell id="HsX7UwhJUl5iErsf_c1I-0" value="N" style="text;html=1;strokeColor=none;fillColor=none;align=center;verticalAlign=middle;whiteSpace=wrap;rounded=0;" parent="WIyWlLk6GJQsqaUBKTNV-1" vertex="1">
          <mxGeometry x="1570" y="830" width="40" height="20" as="geometry" />
        </mxCell>
        <mxCell id="HsX7UwhJUl5iErsf_c1I-4" value="Rate" style="ellipse;whiteSpace=wrap;html=1;" parent="WIyWlLk6GJQsqaUBKTNV-1" vertex="1">
          <mxGeometry x="1500" y="695" width="70" height="65" as="geometry" />
        </mxCell>
        <mxCell id="HsX7UwhJUl5iErsf_c1I-5" value="" style="endArrow=none;html=1;exitX=1;exitY=0.5;exitDx=0;exitDy=0;entryX=0;entryY=1;entryDx=0;entryDy=0;" parent="WIyWlLk6GJQsqaUBKTNV-1" source="ReeH3Xt1Pkfj4cLhiJu3-100" target="HsX7UwhJUl5iErsf_c1I-4" edge="1">
          <mxGeometry width="50" height="50" relative="1" as="geometry">
            <mxPoint x="1470" y="810" as="sourcePoint" />
            <mxPoint x="1380.7842712474621" y="738.7132034355966" as="targetPoint" />
          </mxGeometry>
        </mxCell>
      </root>
    </mxGraphModel>
  </diagram>
</mxfile>
